<?xml version="1.0" encoding="UTF-8"?>
<svg id="OBJECTS" xmlns="http://www.w3.org/2000/svg" xmlns:xlink="http://www.w3.org/1999/xlink" viewBox="0 0 435.74 435.74">
  <defs>
    <style>
      .cls-1 {
        fill: url(#linear-gradient-2);
      }

      .cls-2 {
        fill: url(#linear-gradient-4);
      }

      .cls-3 {
        fill: url(#linear-gradient-3);
      }

      .cls-4 {
        fill: url(#linear-gradient-5);
      }

      .cls-5 {
        fill: url(#linear-gradient-7);
      }

      .cls-6 {
        fill: url(#linear-gradient-6);
      }

      .cls-7 {
        fill: url(#linear-gradient);
      }
    </style>
    <linearGradient id="linear-gradient" x1="212.16" y1="-94.58" x2="219.4" y2="301.4" gradientUnits="userSpaceOnUse">
      <stop offset=".01" stop-color="#412c9b"/>
      <stop offset=".14" stop-color="#462e9e"/>
      <stop offset=".31" stop-color="#5736a9"/>
      <stop offset=".5" stop-color="#7243bb"/>
      <stop offset=".71" stop-color="#9855d4"/>
      <stop offset=".93" stop-color="#c96cf3"/>
      <stop offset="1" stop-color="#db75ff"/>
    </linearGradient>
    <linearGradient id="linear-gradient-2" x1="153.58" y1="299.53" x2="260.83" y2="163.31" xlink:href="#linear-gradient"/>
    <linearGradient id="linear-gradient-3" x1="326.69" y1="214.77" x2="215.24" y2="191.14" xlink:href="#linear-gradient"/>
    <linearGradient id="linear-gradient-4" x1="119.73" y1="329.38" x2="225.83" y2="166.21" xlink:href="#linear-gradient"/>
    <linearGradient id="linear-gradient-5" x1="106.2" y1="331.22" x2="360" y2="2.77" gradientUnits="userSpaceOnUse">
      <stop offset=".09" stop-color="#fff"/>
      <stop offset=".13" stop-color="#fdf9ff" stop-opacity=".96"/>
      <stop offset=".21" stop-color="#f9eaff" stop-opacity=".85"/>
      <stop offset=".3" stop-color="#f3d1ff" stop-opacity=".67"/>
      <stop offset=".41" stop-color="#eaafff" stop-opacity=".42"/>
      <stop offset=".54" stop-color="#df84ff" stop-opacity=".11"/>
      <stop offset=".59" stop-color="#db75ff" stop-opacity="0"/>
    </linearGradient>
    <linearGradient id="linear-gradient-6" x1="289.51" y1="38.35" x2="79.5" y2="457.49" xlink:href="#linear-gradient-5"/>
    <linearGradient id="linear-gradient-7" x1="62.04" y1="307.55" x2="173.06" y2="136.82" gradientUnits="userSpaceOnUse">
      <stop offset=".11" stop-color="#412c9b"/>
      <stop offset=".2" stop-color="#462e9e"/>
      <stop offset=".31" stop-color="#5736a9"/>
      <stop offset=".43" stop-color="#7243bb"/>
      <stop offset=".56" stop-color="#9855d4"/>
      <stop offset=".7" stop-color="#c96cf3"/>
      <stop offset=".75" stop-color="#db75ff"/>
    </linearGradient>
  </defs>
  <path class="cls-7" d="M435.74,240.33v-44.92c0-7.65-6.2-13.85-13.85-13.85h-68.77c-3.19-11.91-7.94-23.19-13.97-33.64l48.67-48.65c5.41-5.41,5.41-14.18,0-19.59l-31.78-31.76c-5.41-5.4-14.17-5.4-19.58,0l-48.65,48.65c-10.45-6.03-21.73-10.77-33.64-13.97V13.85c0-7.65-6.2-13.85-13.85-13.85h-44.92c-7.65,0-13.85,6.2-13.85,13.85v68.77c-11.91,3.19-23.19,7.94-33.61,13.97l-48.68-48.65c-5.41-5.41-14.17-5.4-19.58,0l-31.76,31.76c-5.41,5.41-5.41,14.18,0,19.58l48.65,48.65c-6.03,10.45-10.75,21.73-13.94,33.64H13.85c-7.65,0-13.85,6.2-13.85,13.85v44.92c0,7.65,6.2,13.85,13.85,13.85h68.8c3.19,11.91,7.91,23.19,13.94,33.61l-48.66,48.68c-5.41,5.41-5.4,14.17,0,19.58l31.76,31.76c5.41,5.41,14.17,5.41,19.58,0l48.68-48.66c10.42,6.03,21.7,10.75,33.61,13.94v68.8c0,7.65,6.2,13.85,13.85,13.85h44.92c7.65,0,13.85-6.2,13.85-13.85v-68.8c11.91-3.19,23.19-7.91,33.64-13.94l48.65,48.65c5.41,5.41,14.17,5.41,19.58,0l31.78-31.76c5.41-5.41,5.41-14.18,0-19.59l-48.68-48.68c6.03-10.42,10.77-21.7,13.97-33.61h68.77c7.65,0,13.85-6.2,13.85-13.85ZM206.08,333.02c-54.12-5.37-97.88-49.13-103.3-103.24-7.33-73.17,53.6-134.25,126.81-127.06,54.18,5.32,98.03,49.12,103.41,103.29,7.27,73.22-53.77,134.26-126.92,127Z"/>
  <circle class="cls-1" cx="217.87" cy="217.87" r="105.8"/>
  <g>
    <path class="cls-3" d="M304.53,96.28v182.31c-4.19,5.96-8.97,11.48-14.28,16.45-3.15,2.96-6.48,5.72-9.97,8.27-17.49,12.81-39.07,20.36-62.41,20.36-29.61,0-56.38-12.17-75.58-31.77V96.28c0-3.88.87-7.55,2.44-10.85,4.07-8.59,12.81-14.52,22.93-14.52h111.49c14.01,0,25.37,11.36,25.37,25.37Z"/>
    <path class="cls-2" d="M290.25,96.28v198.76c-3.15,2.96-6.48,5.72-9.97,8.27-17.49,12.81-39.07,20.36-62.41,20.36-29.61,0-56.38-12.17-75.58-31.77-1.49-1.51-2.92-3.07-4.31-4.67-3.67-4.21-7-8.72-9.97-13.48V96.28c0-14.01,11.36-25.37,25.37-25.37h111.49c14.01,0,25.37,11.36,25.37,25.37Z"/>
    <path class="cls-4" d="M280.28,97.69v205.63c-17.49,12.81-39.07,20.36-62.41,20.36-29.61,0-56.38-12.17-75.58-31.77-1.49-1.51-2.92-3.07-4.31-4.67V97.69c0-5.16,2.69-9.69,6.75-12.26,2.24-1.43,4.91-2.26,7.76-2.26h113.27c8.01,0,14.51,6.49,14.51,14.51Z"/>
    <path class="cls-6" d="M280.28,97.69v205.63c-17.49,12.81-39.07,20.36-62.41,20.36-29.61,0-56.38-12.17-75.58-31.77-1.49-1.51-2.92-3.07-4.31-4.67V97.69c0-5.16,2.69-9.69,6.75-12.26,2.24-1.43,4.91-2.26,7.76-2.26h113.27c8.01,0,14.51,6.49,14.51,14.51Z"/>
    <path class="cls-5" d="M177.72,70.91h65.12v14.29c0,5.65-4.59,10.23-10.23,10.23h-44.65c-5.65,0-10.23-4.59-10.23-10.23v-14.29h0Z"/>
  </g>
</svg>